<?xml version="1.0" standalone="no"?>
<!DOCTYPE svg PUBLIC "-//W3C//DTD SVG 1.1//EN" "http://www.w3.org/Graphics/SVG/1.1/DTD/svg11.dtd" >
<!--
2013-9-30: Created.
-->
<svg>
<metadata>
Created by iconfont
</metadata>
<defs>

<font id="iconfont" horiz-adv-x="1024" >
  <font-face
    font-family="iconfont"
    font-weight="500"
    font-stretch="normal"
    units-per-em="1024"
    ascent="896"
    descent="-128"
  />
    <missing-glyph />
    
    <glyph glyph-name="CancelOutline" unicode="&#59048;" d="M512 896C229.2 896 0 666.8 0 384s229.2-512 512-512 512 229.2 512 512S794.8 896 512 896z m0-945.2C273.1-49.2 78.8 145.1 78.8 384S273.1 817.2 512 817.2 945.2 622.9 945.2 384 750.9-49.2 512-49.2zM708.9 423.4H315.1c-21.8 0-39.4-17.6-39.4-39.4s17.6-39.4 39.4-39.4h393.8c21.8 0 39.4 17.6 39.4 39.4s-17.6 39.4-39.4 39.4z"  horiz-adv-x="1024" />

    
    <glyph glyph-name="IncreaseOutline" unicode="&#59049;" d="M512 896C229.2 896 0 666.8 0 384s229.2-512 512-512 512 229.2 512 512S794.8 896 512 896z m0-945.2C273.1-49.2 78.8 145.1 78.8 384S273.1 817.2 512 817.2 945.2 622.9 945.2 384 750.9-49.2 512-49.2zM715.8 430.1H558.3V587.6c0 21.8-17.6 39.4-39.4 39.4s-39.4-17.6-39.4-39.4v-157.5H322c-21.8 0-39.4-17.6-39.4-39.4 0-21.7 17.6-39.4 39.4-39.4h157.5v-157.5c0-21.8 17.6-39.4 39.4-39.4s39.4 17.6 39.4 39.4V351.3h157.5c21.8 0 39.4 17.6 39.4 39.4 0 21.8-17.6 39.4-39.4 39.4z"  horiz-adv-x="1024" />

    
    <glyph glyph-name="xiangshang" unicode="&#59057;" d="M944.43385 100.195236 535.669072 505.220852c-0.592494 0.592494-1.407046 0.779759-2.033309 1.333368-0.147356 0.146333-0.186242 0.37146-0.333598 0.518816-14.543228 14.358009-37.97694 14.284331-52.373835-0.225127L75.942623 98.122017c-14.396895-14.544251-14.290471-37.938054 0.220011-52.341089 7.218402-7.139607 16.657378-10.731412 26.061562-10.731412 9.511631 0 19.061125 3.665483 26.279526 10.957563l379.226021 382.66433 384.590192-381.037273c7.218402-7.144724 16.616446-10.737552 26.055422-10.737552 9.550517 0 19.061125 3.665483 26.285666 10.957563C959.057919 62.362582 958.943308 85.798341 944.43385 100.195236L944.43385 100.195236zM944.43385 100.195236"  horiz-adv-x="1024" />

    
    <glyph glyph-name="xiangxia" unicode="&#59058;" d="M271.224593 560.202923l408.802285-404.972283c0.604737-0.604737 1.411053-0.806316 2.01579-1.310264 0.10079-0.10079 0.201579-0.403158 0.302369-0.503948 14.513691-14.412901 37.997648-14.312112 52.410549 0.201579L1139.694272 562.319503c14.412901 14.513691 14.312112 37.896859-0.201579 52.30976-7.189652 7.088863-16.697463 10.683689-26.104485 10.683689-9.507811 0-19.082815-3.695616-26.306064-10.986057L707.911977 231.729884 323.332773 612.714262c-7.189652 7.088863-16.596674 10.683689-26.104485 10.683689-9.608601 0-19.082815-3.695616-26.306064-10.986057C256.54292 598.099782 256.744499 574.615824 271.224593 560.202923L271.224593 560.202923z"  horiz-adv-x="1414" />

    
    <glyph glyph-name="wangluo1" unicode="&#58884;" d="M102 486.458c-10.237 0-20.474 3.905-28.284 11.716-15.621 15.621-15.621 40.947 0 56.568 59.201 59.201 128.208 105.043 205.103 136.254C353.087 721.14 431.541 736.424 512 736.424c80.46 0 158.913-15.284 233.182-45.428 76.896-31.21 145.902-77.053 205.103-136.254 15.621-15.621 15.621-40.948 0-56.568-15.621-15.622-40.947-15.621-56.568 0C791.667 600.223 656.104 656.424 512 656.424c-144.104 0-279.667-56.201-381.716-158.25-7.81-7.811-18.047-11.716-28.284-11.716zM792 346.93c-10.237 0-20.474 3.905-28.284 11.716-138.797 138.795-364.636 138.795-503.432 0-15.621-15.621-40.947-15.621-56.568 0s-15.621 40.947 0 56.568c41.636 41.636 90.174 73.879 144.269 95.835 52.241 21.204 107.424 31.955 164.015 31.955 56.59 0 111.773-10.751 164.015-31.955 54.094-21.956 102.634-54.199 144.27-95.834 15.621-15.621 15.621-40.948 0-56.569-7.811-7.811-18.049-11.716-28.285-11.716zM627 225.904c-10.238-0.001-20.474 3.904-28.285 11.716-23.187 23.188-53.982 35.958-86.715 35.958-32.732 0-63.528-12.77-86.715-35.958-15.621-15.621-40.947-15.621-56.569 0-15.621 15.62-15.621 40.947 0 56.568 38.297 38.298 89.184 59.39 143.285 59.39 54.102 0 104.987-21.092 143.285-59.39 15.62-15.622 15.62-40.948-0.001-56.569-7.81-7.808-18.05-11.714-28.285-11.715zM455.682 126.87a56.318 56.318 0 1 1 112.636 0 56.318 56.318 0 1 1-112.636 0z"  horiz-adv-x="1024" />

    
    <glyph glyph-name="icon-return" unicode="&#852240;" d="M480-76.79999999999995L0 384 480 844.8c12.8 12.8 32 12.8 44.8 0l22.4-22.4c12.8-12.8 12.8-32 0-44.8L137.6 384 544-6.399999999999977c12.8-12.8 12.8-32 0-44.8l-22.4-22.4c-9.6-16-28.8-16-41.6-3.2z"  horiz-adv-x="1024" />

    
    <glyph glyph-name="icon-bignext" unicode="&#852233;" d="M544 844.8L1024 384 544-76.79999999999995c-12.8-12.8-32-12.8-44.8 0l-22.4 22.4c-12.8 12.8-12.8 32 0 44.8L886.4 384 480 774.4c-12.8 12.8-12.8 32 0 44.8l22.4 22.4c9.6 16 28.8 16 41.6 3.2z"  horiz-adv-x="1024" />

    
    <glyph glyph-name="icon-addblock" unicode="&#852229;" d="M832 800c54.4 0 96-41.6 96-96v-640c0-54.4-41.6-96-96-96H192c-54.4 0-96 41.6-96 96V704c0 54.4 41.6 96 96 96h640m0 96H192C86.4 896 0 809.6 0 704v-640c0-105.6 86.4-192 192-192h640c105.6 0 192 86.4 192 192V704c0 105.6-86.4 192-192 192zM720 336h-416c-25.6 0-48 22.4-48 48s22.4 48 48 48h416c25.6 0 48-22.4 48-48s-22.4-48-48-48zM464 176v416c0 25.6 22.4 48 48 48s48-22.4 48-48v-416c0-25.6-22.4-48-48-48s-48 22.4-48 48z"  horiz-adv-x="1024" />

    
    <glyph glyph-name="icon-add" unicode="&#852228;" d="M992 320H32c-19.2 0-32 12.8-32 32v64c0 19.2 12.8 32 32 32h960c19.2 0 32-12.8 32-32v-64c0-19.2-12.8-32-32-32zM448-96V864c0 19.2 12.8 32 32 32h64c19.2 0 32-12.8 32-32v-960c0-19.2-12.8-32-32-32h-64c-19.2 0-32 12.8-32 32z"  horiz-adv-x="1024" />

    
    <glyph glyph-name="icon-sub" unicode="&#852227;" d="M992 320H32c-19.2 0-32 12.8-32 32v64c0 19.2 12.8 32 32 32h960c19.2 0 32-12.8 32-32v-64c0-19.2-12.8-32-32-32z"  horiz-adv-x="1024" />

    
    <glyph glyph-name="icon-play" unicode="&#852120;" d="M512 896C230.4 896 0 665.6 0 384s230.4-512 512-512 512 230.4 512 512S793.6 896 512 896z m192-534.4l-211.2-211.2c-19.2-19.2-54.4-6.4-54.4 22.4V595.2c0 28.8 35.2 41.6 54.4 22.4l211.2-211.2c12.8-12.8 12.8-32 0-44.8z"  horiz-adv-x="1024" />

    
    <glyph glyph-name="icon-stop" unicode="&#852119;" d="M512 896C230.4 896 0 665.6 0 384s230.4-512 512-512 512 230.4 512 512S793.6 896 512 896z m-64-704c0-19.2-12.8-32-32-32h-64c-19.2 0-32 12.8-32 32V576c0 19.2 12.8 32 32 32h64c19.2 0 32-12.8 32-32v-384z m256 0c0-19.2-12.8-32-32-32h-64c-19.2 0-32 12.8-32 32V576c0 19.2 12.8 32 32 32h64c19.2 0 32-12.8 32-32v-384z"  horiz-adv-x="1024" />

    
    <glyph glyph-name="icon-colsecirc" unicode="&#852117;" d="M316.8 163.20000000000005l-22.4 22.4c-12.8 12.8-12.8 32 0 44.8L662.4 604.8c12.8 12.8 32 12.8 44.8 0l22.4-22.4c12.8-12.8 12.8-32 0-44.8L361.6 163.20000000000005c-12.8-9.6-35.2-9.6-44.8 0zM662.4 163.20000000000005L291.2 534.4c-12.8 12.8-12.8 32 0 44.8l22.4 22.4c12.8 12.8 32 12.8 44.8 0l371.2-371.2c12.8-12.8 12.8-32 0-44.8l-22.4-22.4c-9.6-9.6-32-9.6-44.8 0zM512 800c230.4 0 416-185.6 416-416s-185.6-416-416-416S96 153.60000000000002 96 384 281.6 800 512 800m0 96C230.4 896 0 665.6 0 384s230.4-512 512-512 512 230.4 512 512S793.6 896 512 896z"  horiz-adv-x="1024" />

    
    <glyph glyph-name="icon-colseblock" unicode="&#852116;" d="M316.8 163.20000000000005l-22.4 22.4c-12.8 12.8-12.8 32 0 44.8L662.4 604.8c12.8 12.8 32 12.8 44.8 0l22.4-22.4c12.8-12.8 12.8-32 0-44.8L361.6 163.20000000000005c-12.8-9.6-35.2-9.6-44.8 0zM662.4 163.20000000000005L291.2 534.4c-12.8 12.8-12.8 32 0 44.8l22.4 22.4c12.8 12.8 32 12.8 44.8 0l371.2-371.2c12.8-12.8 12.8-32 0-44.8l-22.4-22.4c-9.6-9.6-32-9.6-44.8 0zM832 800c54.4 0 96-41.6 96-96v-640c0-54.4-41.6-96-96-96H192c-54.4 0-96 41.6-96 96V704c0 54.4 41.6 96 96 96h640m0 96H192C86.4 896 0 809.6 0 704v-640c0-105.6 86.4-192 192-192h640c105.6 0 192 86.4 192 192V704c0 105.6-86.4 192-192 192z"  horiz-adv-x="1024" />

    
    <glyph glyph-name="icon-yes" unicode="&#852112;" d="M422.4 54.39999999999998l499.2 499.2c12.8 12.8 32 12.8 44.8 0l44.8-44.8c12.8-12.8 12.8-32 0-44.8L422.4-128 12.8 278.4c-12.8 12.8-12.8 32 0 44.8l44.8 44.8c12.8 12.8 32 12.8 44.8 0l320-313.6z"  horiz-adv-x="1024" />

    
    <glyph glyph-name="icon-yescicr" unicode="&#852105;" d="M512 896C230.4 896 0 665.6 0 384s230.4-512 512-512 512 230.4 512 512S793.6 896 512 896z m297.6-390.4L432 131.20000000000005l-217.6 217.6c-12.8 12.8-12.8 32 0 44.8l44.8 44.8c12.8 12.8 32 12.8 44.8 0l124.8-124.8 284.8 284.8c12.8 12.8 32 12.8 44.8 0l44.8-44.8c16-16 16-35.2 6.4-48z"  horiz-adv-x="1024" />

    
    <glyph glyph-name="icon-yesciblock" unicode="&#852104;" d="M809.6 505.6L432 131.20000000000005l-217.6 217.6c-12.8 12.8-12.8 32 0 44.8l44.8 44.8c12.8 12.8 32 12.8 44.8 0l124.8-124.8 284.8 284.8c12.8 12.8 32 12.8 44.8 0l44.8-44.8c16-16 16-35.2 6.4-48zM832 800c54.4 0 96-41.6 96-96v-640c0-54.4-41.6-96-96-96H192c-54.4 0-96 41.6-96 96V704c0 54.4 41.6 96 96 96h640m0 96H192C86.4 896 0 809.6 0 704v-640c0-105.6 86.4-192 192-192h640c105.6 0 192 86.4 192 192V704c0 105.6-86.4 192-192 192z"  horiz-adv-x="1024" />

    
    <glyph glyph-name="icon-upload" unicode="&#852102;" d="M355.2 633.6l108.8 108.8v-393.6c0-19.2 12.8-32 32-32h32c19.2 0 32 12.8 32 32V742.4l108.8-108.8c9.6-9.6 22.4-12.8 35.2-12.8s25.6 3.2 35.2 12.8c19.2 19.2 19.2 48 0 67.2L566.4 873.6c-28.8 28.8-76.8 28.8-105.6 0L284.8 700.8c-19.2-19.2-19.2-48 0-67.2 19.2-19.2 51.2-19.2 70.4 0zM512 790.4zM832 576c-19.2 0-32-12.8-32-32v-32c0-19.2 12.8-32 32-32 54.4 0 96-41.6 96-96v-320c0-54.4-41.6-96-96-96H192c-54.4 0-96 41.6-96 96V384c0 54.4 41.6 96 96 96 19.2 0 32 12.8 32 32v32c0 19.2-12.8 32-32 32-105.6 0-192-86.4-192-192v-320c0-105.6 86.4-192 192-192h640c105.6 0 192 86.4 192 192V384c0 105.6-86.4 192-192 192z"  horiz-adv-x="1024" />

    
    <glyph glyph-name="icon-location" unicode="&#852100;" d="M512 800c83.2 0 166.4-35.2 224-96 124.8-131.2 124.8-336 0-467.2l-224-230.4-224 230.4C160 368 160 572.8 288 704c57.6 60.8 140.8 96 224 96m0 96c-112 0-217.6-44.8-294.4-124.8-163.2-166.4-163.2-432 0-598.4L512-128l294.4 300.8c163.2 166.4 163.2 432 0 598.4C729.6 851.2 624 896 512 896zM512 505.6m-96 0a96 96 0 1 1 192 0 96 96 0 1 1-192 0Z"  horiz-adv-x="1024" />

    
    <glyph glyph-name="icon-user" unicode="&#852099;" d="M761.431057 262.313399c-63.985803-57.587223-147.167347-95.978705-243.146051-95.978705-89.580124 0-166.363088 31.992902-233.548182 83.181545-9.59787 6.39858-22.395031 9.59787-35.192192 3.19929C108.775865 175.93256499999995 12.797161 76.75456999999994 0-92.80780800000002c0-19.195741 15.996451-35.192192 31.992902-35.192192h959.787047c19.195741 0 31.992902 15.996451 31.992901 35.192192-12.797161 175.960959-118.373736 271.939663-262.341793 355.121207zM511.886425 255.91481899999997c204.75457 0 361.519788 191.957409 310.331145 396.711979-28.793611 121.573026-134.370187 220.751021-262.341792 239.946762C361.519788 921.367172 191.957409 764.601954 191.957409 575.843835c0-182.359539 150.366637-319.929016 319.929016-319.929016z"  horiz-adv-x="1024" />

    
    <glyph glyph-name="icon-block" unicode="&#852082;" d="M832 800c54.4 0 96-41.6 96-96v-640c0-54.4-41.6-96-96-96H192c-54.4 0-96 41.6-96 96V704c0 54.4 41.6 96 96 96h640m0 96H192C86.4 896 0 809.6 0 704v-640c0-105.6 86.4-192 192-192h640c105.6 0 192 86.4 192 192V704c0 105.6-86.4 192-192 192z"  horiz-adv-x="1024" />

    
    <glyph glyph-name="icon-del" unicode="&#852081;" d="M176 656h96V704c0 80 64 144 144 144h192-192c-80 0-144-64-144-144v-48h-96V64 656z m576 0h224-224zM608 896h-192C310.4 896 224 809.6 224 704H32c-19.2 0-32-12.8-32-32v-32c0-19.2 12.8-32 32-32h96v-544c0-105.6 86.4-192 192-192h384c105.6 0 192 86.4 192 192V608h96c19.2 0 32 12.8 32 32V672c0 19.2-12.8 32-32 32h-192c0 105.6-86.4 192-192 192z m-288-192c0 54.4 41.6 96 96 96h192c54.4 0 96-41.6 96-96H320z m0-736c-54.4 0-96 41.6-96 96V608h576v-544c0-54.4-41.6-96-96-96H320zM352 176zM368 448h-32c-19.2 0-32-12.8-32-32v-256c0-19.2 12.8-32 32-32h32c19.2 0 32 12.8 32 32v256c0 19.2-12.8 32-32 32zM672 176zM688 448h-32c-19.2 0-32-12.8-32-32v-256c0-19.2 12.8-32 32-32h32c19.2 0 32 12.8 32 32v256c0 19.2-12.8 32-32 32zM512 176zM528 448h-32c-19.2 0-32-12.8-32-32v-256c0-19.2 12.8-32 32-32h32c19.2 0 32 12.8 32 32v256c0 19.2-12.8 32-32 32z"  horiz-adv-x="1024" />

    
    <glyph glyph-name="icon-star" unicode="&#852080;" d="M496.38912 22.399999999999977l-259.2-144c-25.6-12.8-54.4 6.4-51.2 35.2L233.98912 224c3.2 9.6-3.2 22.4-9.6 28.8L9.98912 473.6c-19.2 19.2-9.6 54.4 19.2 57.6l294.4 44.8c12.8 3.2 22.4 9.6 25.6 19.2L480.38912 876.8c12.8 25.6 51.2 25.6 60.8 0L672.38912 598.4c6.4-9.6 16-19.2 25.6-19.2l294.4-44.8c28.8-3.2 38.4-38.4 19.2-57.6l-211.2-224c-6.4-6.4-9.6-19.2-9.6-28.8l51.2-310.4c3.2-28.8-25.6-48-51.2-35.2l-259.2 144c-12.8 3.2-25.6 3.2-35.2 0z"  horiz-adv-x="1024" />

    
    <glyph glyph-name="edit" unicode="&#852069;" d="M502.4 352l-22.4 22.4c-12.8 12.8-12.8 32 0 44.8L947.2 886.4c12.8 12.8 32 12.8 44.8 0l22.4-22.4c12.8-12.8 12.8-32 0-44.8L547.2 352c-12.8-12.8-32-12.8-44.8 0zM928 64c0-54.4-41.6-96-96-96H192c-54.4 0-96 41.6-96 96V704c0 54.4 41.6 96 96 96h352c19.2 0 32 12.8 32 32V864c0 19.2-12.8 32-32 32H192C86.4 896 0 809.6 0 704v-640c0-105.6 86.4-192 192-192h640c105.6 0 192 86.4 192 192V416c0 19.2-12.8 32-32 32h-32c-19.2 0-32-12.8-32-32v-352z"  horiz-adv-x="1024" />

    
    <glyph glyph-name="dn" unicode="&#852066;" d="M489.6 208l-243.2 243.2c-19.2 19.2-6.4 54.4 22.4 54.4h486.4c28.8 0 41.6-35.2 22.4-54.4l-243.2-243.2c-12.8-12.8-32-12.8-44.8 0z"  horiz-adv-x="1024" />

    
    <glyph glyph-name="up" unicode="&#852065;" d="M534.4 528l243.2-243.2c19.2-19.2 6.4-54.4-22.4-54.4H268.8c-28.8 0-41.6 35.2-22.4 54.4l243.2 243.2c12.8 12.8 32 12.8 44.8 0z"  horiz-adv-x="1024" />

    
    <glyph glyph-name="moreline" unicode="&#852064;" d="M512 800c230.4 0 416-185.6 416-416s-185.6-416-416-416S96 153.60000000000002 96 384 281.6 800 512 800m0 96C230.4 896 0 665.6 0 384s230.4-512 512-512 512 230.4 512 512S793.6 896 512 896zM320 464H224c-19.2 0-32-12.8-32-32v-96c0-19.2 12.8-32 32-32h96c19.2 0 32 12.8 32 32v96c0 19.2-12.8 32-32 32zM560 464h-96c-19.2 0-32-12.8-32-32v-96c0-19.2 12.8-32 32-32h96c19.2 0 32 12.8 32 32v96c0 19.2-12.8 32-32 32zM800 464h-96c-19.2 0-32-12.8-32-32v-96c0-19.2 12.8-32 32-32h96c19.2 0 32 12.8 32 32v96c0 19.2-12.8 32-32 32z"  horiz-adv-x="1024" />

    
    <glyph glyph-name="more" unicode="&#852056;" d="M224 256H32c-19.2 0-32 12.8-32 32v192c0 19.2 12.8 32 32 32h192c19.2 0 32-12.8 32-32v-192c0-19.2-12.8-32-32-32zM608 256h-192c-19.2 0-32 12.8-32 32v192c0 19.2 12.8 32 32 32h192c19.2 0 32-12.8 32-32v-192c0-19.2-12.8-32-32-32zM992 256h-192c-19.2 0-32 12.8-32 32v192c0 19.2 12.8 32 32 32h192c19.2 0 32-12.8 32-32v-192c0-19.2-12.8-32-32-32z"  horiz-adv-x="1024" />

    
    <glyph glyph-name="search" unicode="&#852036;" d="M1003.264798-38.67912799999999l-207.352025 207.352025c60.610592 76.560748 98.890966 175.451713 98.890965 280.722742 0 245.632399-200.971963 446.604361-446.604361 446.604361S1.595016 691.838006 1.595016 446.205607s200.971963-446.604361 446.604361-446.604361c105.271028 0 204.161994 38.280374 280.722741 98.890966l207.352025-207.352025c12.760125-12.760125 31.900312-12.760125 44.660436 0l22.330219 22.330218c9.570093 12.760125 9.570093 35.090343 0 47.850467zM97.29595 446.205607C97.29595 640.797508 253.607477 797.109034 448.199377 797.109034s350.903427-156.311526 350.903427-350.903427-156.311526-350.903427-350.903427-350.903426S97.29595 251.61370699999998 97.29595 446.205607z"  horiz-adv-x="1024" />

    
    <glyph glyph-name="form" unicode="&#852034;" d="M832 800c54.4 0 96-41.6 96-96v-640c0-54.4-41.6-96-96-96H192c-54.4 0-96 41.6-96 96V704c0 54.4 41.6 96 96 96h640m0 96H192C86.4 896 0 809.6 0 704v-640c0-105.6 86.4-192 192-192h640c105.6 0 192 86.4 192 192V704c0 105.6-86.4 192-192 192zM288 704H224c-19.2 0-32-12.8-32-32v-64c0-19.2 12.8-32 32-32h64c19.2 0 32 12.8 32 32V672c0 19.2-12.8 32-32 32zM544 704h-64c-19.2 0-32-12.8-32-32v-64c0-19.2 12.8-32 32-32h64c19.2 0 32 12.8 32 32V672c0 19.2-12.8 32-32 32zM800 704h-64c-19.2 0-32-12.8-32-32v-64c0-19.2 12.8-32 32-32h64c19.2 0 32 12.8 32 32V672c0 19.2-12.8 32-32 32zM800 448H224c-19.2 0-32-12.8-32-32v-32c0-19.2 12.8-32 32-32h576c19.2 0 32 12.8 32 32v32c0 19.2-12.8 32-32 32zM800 224H224c-19.2 0-32-12.8-32-32v-32c0-19.2 12.8-32 32-32h576c19.2 0 32 12.8 32 32v32c0 19.2-12.8 32-32 32z"  horiz-adv-x="1024" />

    
    <glyph glyph-name="time" unicode="&#852033;" d="M512 896C230.4 896 0 665.6 0 384s230.4-512 512-512 512 230.4 512 512S793.6 896 512 896z m0-928C281.6-32 96 153.60000000000002 96 384S281.6 800 512 800s416-185.6 416-416-185.6-416-416-416zM736 432h-176v224c0 19.2-12.8 32-32 32h-32c-19.2 0-32-12.8-32-32v-320H736c19.2 0 32 12.8 32 32v32c0 19.2-12.8 32-32 32z"  horiz-adv-x="1024" />

    
    <glyph glyph-name="mess" unicode="&#852025;" d="M576 832h-128C201.6 832 0 630.4 0 384c0-76.8 19.2-150.4 54.4-214.4l-6.4-204.8L220.8 0c67.2-38.4 144-64 227.2-64h128c246.4 0 448 201.6 448 448S822.4 832 576 832z m-230.4-480c0-19.2-16-32-32-32h-64c-19.2 0-32 12.8-32 32v64c0 19.2 12.8 32 32 32h64c19.2 0 32-12.8 32-32v-64z m240 0c0-19.2-16-32-32-32h-64c-19.2 0-32 12.8-32 32v64c0 19.2 12.8 32 32 32h64c19.2 0 32-12.8 32-32v-64z m240 0c0-19.2-16-32-32-32h-64c-19.2 0-32 12.8-32 32v64c0 19.2 12.8 32 32 32h64c19.2 0 32-12.8 32-32v-64z"  horiz-adv-x="1024" />

    
    <glyph glyph-name="phone" unicode="&#852023;" d="M394.586356 263.90545c92.538377-92.538377 197.840667-178.694796 239.323388-137.212076 60.628592 60.628592 95.729355 111.684248 229.750452 6.381957s31.909785-175.503818-25.527828-236.132409c-67.010549-67.010549-315.906872-3.190979-564.803195 242.514366C24.43285 388.353612-42.577699 637.249935 24.43285 704.260484c57.437613 57.437613 127.63914 159.548925 236.132409 28.718806 105.302291-130.830119 54.246635-169.121861-6.381957-229.750452-41.482721-41.482721 47.864678-146.785011 140.403054-239.323388z m130.830119 433.973077s-28.718807 3.190979-47.864678-15.954893-22.33685-54.246635 0-76.583484c12.763914-12.763914 28.718807-15.954893 28.718807-15.954893 35.100764-6.381957 86.15642-15.954893 140.403054-73.392505 54.246635-54.246635 67.010549-105.302291 73.392506-140.403054 0 0 3.190979-15.954893 15.954892-28.718807 22.33685-22.33685 54.246635-19.145871 76.583484 0 19.145871 19.145871 15.954893 47.864678 15.954893 47.864678-9.572936 70.201527-44.673699 140.403054-102.111312 197.840667-57.437613 60.628592-130.830119 95.729355-201.031646 105.302291z m261.660237-41.482721c98.920334-98.920334 143.594033-213.79556 130.830119-306.333937 0 0-6.381957-28.718807 12.763914-47.864677 22.33685-22.33685 54.246635-19.145871 76.583484 0 12.763914 12.763914 15.954893 35.100764 15.954893 35.100763 12.763914 79.774463-3.190979 239.323388-159.548926 395.681335C704.111271 889.337237 544.562346 905.292129 464.787883 892.528215c0 0-22.33685-3.190979-35.100763-15.954892-19.145871-19.145871-22.33685-54.246635 0-76.583484 19.145871-19.145871 51.055656-12.763914 51.055656-12.763914 92.538377 12.763914 204.222624-28.718807 306.333936-130.830119z m0 0"  horiz-adv-x="1029" />

    
    <glyph glyph-name="car" unicode="&#852005;" d="M404.62208 793.6c80 12.8 147.2 9.6 220.8 0 51.2-9.6 102.4-19.2 150.4-32 35.2-9.6 64-35.2 76.8-73.6 19.2-60.8 41.6-118.4 64-179.2 3.2-9.6 16-25.6 22.4-22.4 48 6.4 70.4-22.4 86.4-60.8 3.2-12.8 0-25.6 0-32-19.2-6.4-41.6-9.6-57.6-16 3.2-22.4 6.4-41.6 6.4-64v-288c0-16-9.6-44.8-16-48-6.4-12.8-153.6-9.6-163.2-3.2-38.4 25.6-16 67.2-25.6 99.2H270.22208c-9.6-35.2-16-96-25.6-99.2-25.6-9.6-160-9.6-166.4 0-9.6 6.4-16 35.2-19.2 54.4-3.2 41.6 0 80 0 121.6 0 76.8 3.2 150.4 3.2 227.2-19.2 6.4-38.4 9.6-60.8 16 0 6.4-3.2 16 0 25.6 12.8 41.6 35.2 73.6 86.4 67.2 6.4 0 19.2 12.8 22.4 22.4C129.42208 556.8 148.62208 601.6 161.42208 649.6c22.4 83.2 80 115.2 156.8 128 28.8 6.4 57.6 12.8 86.4 16zM177.42208 470.4c227.2-48 444.8-48 668.8 0-19.2 57.6-38.4 108.8-51.2 163.2-12.8 44.8-41.6 67.2-86.4 70.4-105.6 3.2-211.2 9.6-320 9.6-32-3.2-67.2-9.6-102.4-19.2-12.8-3.2-32-12.8-38.4-25.6-25.6-64-44.8-128-70.4-198.4zM222.22208 224c19.2 0 38.4 0 54.4 3.2 12.8 3.2 28.8 12.8 32 22.4 3.2 6.4-9.6 28.8-19.2 32-41.6 19.2-83.2 35.2-128 51.2-22.4 6.4-44.8 6.4-54.4-25.6-9.6-44.8 0-70.4 32-76.8 28.8-3.2 54.4-3.2 83.2-6.4z m588.8 0c22.4 3.2 51.2 3.2 80 9.6 38.4 9.6 28.8 41.6 28.8 67.2 0 22.4-16 41.6-35.2 35.2-51.2-16-105.6-35.2-153.6-60.8-22.4-9.6-16-41.6 12.8-48 19.2 0 41.6 0 67.2-3.2z m0 0"  horiz-adv-x="1026" />

    
    <glyph glyph-name="stick" unicode="&#851974;" d="M832 793.6c54.4 0 96-41.6 96-96v-448c0-54.4-41.6-96-96-96H652.8l-28.8-28.8-112-108.8-108.8 108.8-28.8 28.8H192c-54.4 0-96 41.6-96 96v448c0 54.4 41.6 96 96 96h640m0 96H192c-105.6 0-192-86.4-192-192v-448c0-105.6 86.4-192 192-192h140.8l179.2-179.2 179.2 179.2H832c105.6 0 192 86.4 192 192v448c0 105.6-86.4 192-192 192zM704 624H320c-19.2 0-32-12.8-32-32v-32c0-19.2 12.8-32 32-32h384c19.2 0 32 12.8 32 32v32c0 19.2-12.8 32-32 32zM704 406.4H320c-19.2 0-32-12.8-32-32v-32c0-19.2 12.8-32 32-32h384c19.2 0 32 12.8 32 32v32c0 16-12.8 32-32 32z"  horiz-adv-x="1024" />

    
    <glyph glyph-name="map" unicode="&#852261;" d="M512 800c230.4 0 416-185.6 416-416s-185.6-416-416-416S96 153.60000000000002 96 384 281.6 800 512 800m0 96C230.4 896 0 665.6 0 384s230.4-512 512-512 512 230.4 512 512S793.6 896 512 896zM470.4 352l-192 54.4c-12.8 3.2-16 22.4 0 28.8l400 134.4c12.8 3.2 22.4-6.4 19.2-19.2l-134.4-400c-3.2-12.8-25.6-12.8-28.8 0l-54.4 192-9.6 9.6z"  horiz-adv-x="1024" />

    
    <glyph glyph-name="set" unicode="&#852264;" d="M915.2 489.6c-9.6 35.2-25.6 70.4-41.6 102.4-12.8 22.4-9.6 51.2 9.6 67.2 22.4 22.4 22.4 57.6 0 80l-9.6 9.6c-22.4 22.4-57.6 22.4-80 0-19.2-19.2-44.8-22.4-67.2-9.6-32 19.2-67.2 32-102.4 41.6-32 12.8-48 32-48 57.6 0 32-25.6 57.6-57.6 57.6h-16c-32 0-57.6-25.6-57.6-57.6 0-25.6-16-48-41.6-54.4-35.2-9.6-70.4-25.6-102.4-41.6-19.2-12.8-48-9.6-67.2 9.6-22.4 22.4-57.6 22.4-80 0l-9.6-12.8c-22.4-22.4-22.4-57.6 0-80 19.2-19.2 22.4-44.8 9.6-67.2-19.2-32-32-67.2-41.6-102.4-9.6-25.6-28.8-41.6-54.4-41.6-32 0-57.6-25.6-57.6-57.6v-16c0-32 25.6-57.6 57.6-57.6 25.6 0 48-16 54.4-41.6 9.6-35.2 25.6-70.4 41.6-102.4 12.8-22.4 9.6-51.2-9.6-67.2-22.4-22.4-22.4-57.6 0-80l9.6-9.6c22.4-22.4 57.6-22.4 80 0 19.2 19.2 44.8 22.4 67.2 9.6 32-19.2 67.2-32 102.4-41.6 25.6-6.4 41.6-28.8 41.6-54.4 0-32 25.6-57.6 57.6-57.6h16c32 0 57.6 25.6 57.6 57.6 0 25.6 16 48 41.6 54.4 35.2 9.6 70.4 25.6 102.4 41.6 22.4 12.8 51.2 9.6 67.2-9.6 22.4-22.4 57.6-22.4 80 0l9.6 9.6c22.4 22.4 22.4 57.6 0 80-19.2 19.2-22.4 44.8-9.6 67.2 19.2 32 32 67.2 41.6 102.4 6.4 25.6 28.8 41.6 54.4 41.6 32 0 57.6 25.6 57.6 57.6v16c0 32-25.6 57.6-57.6 57.6-22.4 0-41.6 16-48 41.6z m-160-259.2c-22.4-35.2-54.4-67.2-89.6-89.6-25.6-16-57.6-28.8-89.6-38.4-19.2-3.2-41.6-6.4-64-6.4s-44.8 3.2-64 6.4c-32 6.4-60.8 19.2-89.6 38.4-35.2 22.4-67.2 54.4-89.6 89.6-16 28.8-28.8 57.6-38.4 89.6-3.2 19.2-6.4 41.6-6.4 64s3.2 44.8 6.4 64c6.4 32 19.2 60.8 38.4 89.6 22.4 35.2 54.4 67.2 89.6 89.6 28.8 16 57.6 28.8 89.6 38.4 19.2 3.2 41.6 6.4 64 6.4s44.8-3.2 64-6.4c32-6.4 60.8-19.2 89.6-38.4 35.2-22.4 67.2-54.4 89.6-89.6 16-25.6 28.8-57.6 38.4-89.6 3.2-19.2 6.4-41.6 6.4-64s-3.2-44.8-6.4-64c-9.6-32-22.4-60.8-38.4-89.6z"  horiz-adv-x="1024" />

    
    <glyph glyph-name="kongtiaoguankong-" unicode="&#58911;" d="M511.999995-128C229.679998-128 0 101.67999799999996 0 383.999995S229.679998 895.99999 511.999995 895.99999a512.139995 512.139995 0 0 0 251.999998-66.229999 31.85 31.85 0 1 0-31.38-55.43A448.539996 448.539996 0 0 1 511.999995 832.289991C264.799997 832.289991 63.709999 631.179993 63.709999 383.999995S264.799997-64.29000099999996 511.999995-64.29000099999996 960.289991 136.80999699999995 960.289991 383.999995a31.86 31.86 0 1 0 63.709999 0c0-282.319997-229.679998-511.999995-511.999995-511.999995zM665.619993 745.909991l88.87 50.83L779.599992 895.99999l120.889999-210.139998-234.869998 60.049999zM387.879996 508.119994l248.239998 0 0-248.239998-248.239998 0 0 248.239998Z"  horiz-adv-x="1024" />

    
    <glyph glyph-name="ren" unicode="&#59137;" d="M512 676.973714c65.706667 0 119.100952 49.091048 119.100952 109.507048S577.706667 896 512 896 392.777143 846.896762 392.777143 786.468571 446.171429 676.961524 512 676.961524z m97.52381-69.875809H414.354286A81.761524 81.761524 0 0 1 329.142857 528.737524V304.030476a81.225143 81.225143 0 0 1 75.946667-77.433905l9.264762-0.938666V-128H609.52381V226.596571l9.264761 0.950858A81.347048 81.347048 0 0 1 694.857143 304.969143V529.67619c0 42.48381-38.034286 77.421714-85.333333 77.421715z m0 0"  horiz-adv-x="1024" />

    


  </font>
</defs>
</svg>
